<svg height="496pt" viewBox="0 -3 496 495" width="496pt" xmlns="http://www.w3.org/2000/svg"><path d="m432 245.304688h-16c0 92.632812-75.367188 168-168 168s-168-75.367188-168-168c0-85.597657 64.398438-156.316407 147.273438-166.582032l-16.929688 16.929688 11.3125 11.308594 37.65625-37.65625-37.65625-37.652344-11.3125 11.308594 19.265625 19.265624c-92.855469 9.257813-165.609375 87.824219-165.609375 183.078126 0 101.464843 82.535156 184 184 184s184-82.535157 184-184zm0 0"/><path d="m191.765625 3.625 15.683594-3.125 3.125 15.691406-15.683594 3.121094zm0 0"/><path d="m145.703125 19.242188 14.78125-6.125 6.121094 14.78125-14.777344 6.125zm0 0"/><path d="m103.5625 43.546875 13.292969-8.886719 8.890625 13.304688-13.296875 8.882812zm0 0"/><path d="m66.980469 75.601562 11.3125-11.3125 11.316406 11.3125-11.316406 11.316407zm0 0"/><path d="m224 141.304688v8.570312c-27.105469 3.886719-48 27.261719-48 55.429688v8c0 30.875 25.128906 56 56 56h32c4.414062 0 8 3.585937 8 8v8c0 4.417968-3.585938 8-8 8h-32c-4.414062 0-8-3.582032-8-8v-8h-48v8c0 28.167968 20.894531 51.539062 48 55.433593v8.566407c0 13.234374 10.769531 24 24 24s24-10.765626 24-24v-8.566407c27.105469-3.886719 48-27.265625 48-55.433593v-8c0-30.871094-25.128906-56-56-56h-32c-4.414062 0-8-3.582032-8-8v-8c0-4.414063 3.585938-8 8-8h32c4.414062 0 8 3.585937 8 8v8h48v-8c0-28.167969-20.894531-51.535157-48-55.429688v-8.570312c0-13.230469-10.769531-24-24-24s-24 10.769531-24 24zm32 0v24h8c19.320312 0 35.480469 13.769531 39.191406 32h-16.558594c-3.304687-9.308594-12.199218-16-22.632812-16h-32c-13.230469 0-24 10.769531-24 24v8c0 13.234374 10.769531 24 24 24h32c22.054688 0 40 17.945312 40 40v8c0 22.058593-17.945312 40-40 40h-8v24c0 4.417968-3.585938 8-8 8s-8-3.582032-8-8v-24h-8c-19.320312 0-35.480469-13.765626-39.191406-32h16.558594c3.304687 9.3125 12.199218 16 22.632812 16h32c13.230469 0 24-10.765626 24-24v-8c0-13.230469-10.769531-24-24-24h-32c-22.054688 0-40-17.941407-40-40v-8c0-22.054688 17.945312-40 40-40h8v-24c0-4.414063 3.585938-8 8-8s8 3.585937 8 8zm0 0"/><path d="m68.449219 98.378906-12.378907-10.144531c-36.160156 44.144531-56.070312 99.921875-56.070312 157.070313 0 61.121093 22.433594 119.832031 63.160156 165.339843l11.917969-10.675781c-38.09375-42.558594-59.078125-97.484375-59.078125-154.664062 0-53.460938 18.625-105.636719 52.449219-146.925782zm0 0"/><path d="m285.421875 474.390625 15.683594-3.125 3.125 15.683594-15.683594 3.125zm0 0"/><path d="m329.375 462.707031 14.78125-6.125 6.121094 14.78125-14.777344 6.125zm0 0"/><path d="m370.222656 442.636719 13.292969-8.882813 8.890625 13.300782-13.296875 8.886718zm0 0"/><path d="m406.386719 415.019531 11.3125-11.316406 11.3125 11.316406-11.3125 11.3125zm0 0"/><path d="m432.839844 79.96875-11.917969 10.675781c38.09375 42.558594 59.078125 97.484375 59.078125 154.660157 0 53.472656-18.625 105.648437-52.449219 146.9375l12.378907 10.144531c36.160156-44.144531 56.070312-99.921875 56.070312-157.082031 0-61.117188-22.433594-119.832032-63.160156-165.335938zm0 0"/></svg>